<svg xmlns="http://www.w3.org/2000/svg" width="56.576" height="52.996" viewBox="0 0 56.576 52.996">
  <path id="XMLID_1_" d="M22.906,49.649a6.535,6.535,0,0,0-.51-3.087,4.8,4.8,0,0,0-2.6-2.176,6.119,6.119,0,0,0,.459,3.644,6.833,6.833,0,0,0,1.377,1.316,23.916,23.916,0,0,1-2.755-1.012,6.567,6.567,0,0,0,.051-3.087,4.594,4.594,0,0,0-2.092-2.531,5.882,5.882,0,0,0-.2,3.644,5.087,5.087,0,0,0,1.122,1.518,13.731,13.731,0,0,1-1.684-.911c-.306-.152-.612-.354-.969-.557a6.245,6.245,0,0,0,.612-2.986,4.536,4.536,0,0,0-1.581-2.834,5.615,5.615,0,0,0-.867,3.442,4.921,4.921,0,0,0,.918,1.771,22.065,22.065,0,0,1-2.4-2.024,6.155,6.155,0,0,0,1.071-2.834,4.3,4.3,0,0,0-1.071-2.986,5.408,5.408,0,0,0-1.377,3.189,5.011,5.011,0,0,0,.561,1.822,22.411,22.411,0,0,1-1.99-2.379,6.038,6.038,0,0,0,1.53-2.531A4.364,4.364,0,0,0,10,34.972a5.433,5.433,0,0,0-1.888,2.834,5.566,5.566,0,0,0,.2,1.771A21.558,21.558,0,0,1,6.785,37,6.028,6.028,0,0,0,8.673,34.82a4.125,4.125,0,0,0,.051-3.037,5.144,5.144,0,0,0-2.3,2.429,5.333,5.333,0,0,0-.1,1.822A24.137,24.137,0,0,1,5.255,33.15,5.821,5.821,0,0,0,7.5,31.379a4.04,4.04,0,0,0,.561-2.935,5.053,5.053,0,0,0-2.653,1.974A5.319,5.319,0,0,0,5,32.29,20.788,20.788,0,0,1,4.438,29.1a5.892,5.892,0,0,0,2.5-1.367A3.948,3.948,0,0,0,7.958,25,5.033,5.033,0,0,0,5.051,26.47a5.133,5.133,0,0,0-.714,1.721,24.339,24.339,0,0,1-.051-3.34,5.558,5.558,0,0,0,2.653-.911,3.886,3.886,0,0,0,1.479-2.48,5.221,5.221,0,0,0-3.061.911,6.417,6.417,0,0,0-1.02,1.721A27.822,27.822,0,0,1,4.949,20.6a5.431,5.431,0,0,0,2.7-.4,3.856,3.856,0,0,0,1.837-2.126,4.933,4.933,0,0,0-3.112.354A5.769,5.769,0,0,0,5.1,19.84,30.477,30.477,0,0,1,6.326,16.6a5.549,5.549,0,0,0,2.7.051,3.9,3.9,0,0,0,2.143-1.771,4.67,4.67,0,0,0-3.061-.152,4.554,4.554,0,0,0-1.479,1.164,22.609,22.609,0,0,1,1.786-3.037,5.239,5.239,0,0,0,2.653.557A3.7,3.7,0,0,0,13.417,12.1a4.566,4.566,0,0,0-2.908-.658,4.892,4.892,0,0,0-1.735.962,21.225,21.225,0,0,1,2.347-2.784,5.657,5.657,0,0,0,2.5,1.012,3.712,3.712,0,0,0,2.5-.86,4.878,4.878,0,0,0-2.7-1.164,5.184,5.184,0,0,0-1.99.709c.459-.456.918-.81,1.377-1.215a15.3,15.3,0,0,1,1.53-1.164A4.918,4.918,0,0,0,16.58,8.3a3.644,3.644,0,0,0,2.6-.4,4.541,4.541,0,0,0-2.4-1.569,4.7,4.7,0,0,0-2.041.354,27.73,27.73,0,0,1,3.214-1.822A5.483,5.483,0,0,0,19.9,6.63a3.734,3.734,0,0,0,2.551.051,4.462,4.462,0,0,0-2.041-1.923,2.86,2.86,0,0,0-2.041-.152,21.159,21.159,0,0,1,2.245-.911,2.682,2.682,0,0,0,1.939.253,4.039,4.039,0,0,0,1.786-1.215A5.342,5.342,0,0,0,22.4,2.379,3.243,3.243,0,0,0,20.61,3.593a13.415,13.415,0,0,0-1.786.658,5.245,5.245,0,0,0,1.53-1.468A4.6,4.6,0,0,0,20.457,0a3.631,3.631,0,0,0-1.837,1.771A4.337,4.337,0,0,0,18.468,4.4a24.386,24.386,0,0,0-3.316,1.771A5.081,5.081,0,0,0,16.376,4.5a4.476,4.476,0,0,0-.357-2.834A3.69,3.69,0,0,0,14.488,3.8a4.694,4.694,0,0,0,.306,2.632A24.131,24.131,0,0,0,12.8,7.845a5.863,5.863,0,0,0-.867.709A4.363,4.363,0,0,0,12.7,6.832a4.508,4.508,0,0,0-.867-2.784,3.515,3.515,0,0,0-1.122,2.379,5.163,5.163,0,0,0,.714,2.531,20.318,20.318,0,0,0-2.4,2.632,5.349,5.349,0,0,0,.459-1.771A4.646,4.646,0,0,0,8.111,7.187,3.807,3.807,0,0,0,7.4,9.768,5.553,5.553,0,0,0,8.571,12.2a26.527,26.527,0,0,0-1.939,3.087,4.927,4.927,0,0,0,.153-1.923,4.938,4.938,0,0,0-1.837-2.429,3.72,3.72,0,0,0-.255,2.733,5.57,5.57,0,0,0,1.632,2.227A22.1,22.1,0,0,0,5,19.08a4.372,4.372,0,0,0-.2-1.822,4.93,4.93,0,0,0-2.3-2.075,3.845,3.845,0,0,0,.2,2.784,5.491,5.491,0,0,0,1.99,1.923,22.216,22.216,0,0,0-.714,3.188,4.74,4.74,0,0,0-.51-1.569A5.139,5.139,0,0,0,.816,19.789a4.312,4.312,0,0,0,.714,2.885,5.7,5.7,0,0,0,2.3,1.569,22.205,22.205,0,0,0-.1,3.188,5.705,5.705,0,0,0-.765-1.468A5.117,5.117,0,0,0,0,24.7a4.169,4.169,0,0,0,1.224,2.682,5.335,5.335,0,0,0,2.6,1.164,19.132,19.132,0,0,0,.408,2.986,3.213,3.213,0,0,0-1.02-1.265A5.5,5.5,0,0,0,0,29.607a4.224,4.224,0,0,0,1.684,2.48,5.924,5.924,0,0,0,2.806.759,23.958,23.958,0,0,0,.969,2.885,3.75,3.75,0,0,0-1.275-1.113,5.435,5.435,0,0,0-3.367-.152,4.32,4.32,0,0,0,2.143,2.176,5.873,5.873,0,0,0,2.959.253A22.654,22.654,0,0,0,7.4,39.578a5.287,5.287,0,0,0-1.479-.962,5.025,5.025,0,0,0-3.367.354A4.418,4.418,0,0,0,5.1,40.793a6.716,6.716,0,0,0,3.01-.253A28.124,28.124,0,0,0,9.9,42.868a4.2,4.2,0,0,0-1.53-.607A5.719,5.719,0,0,0,5,43.272a4.437,4.437,0,0,0,2.908,1.367,6.588,6.588,0,0,0,2.908-.759,17.876,17.876,0,0,0,2.092,1.873,5.93,5.93,0,0,0-1.479-.3,5.61,5.61,0,0,0-3.214,1.62,4.668,4.668,0,0,0,3.163.86,6.005,6.005,0,0,0,2.755-1.265,12.168,12.168,0,0,0,1.53.911c.306.2.612.354.969.557A4.491,4.491,0,0,0,15,48.081a5.6,5.6,0,0,0-2.908,2.176,4.6,4.6,0,0,0,3.316.3,6.946,6.946,0,0,0,2.6-1.771,24.837,24.837,0,0,0,2.6,1.012,4.254,4.254,0,0,0-1.632.253,6.1,6.1,0,0,0-2.551,2.733,4.682,4.682,0,0,0,3.367-.253,6.448,6.448,0,0,0,2.245-2.227,22.361,22.361,0,0,0,3.724.709l.051-.4.051-.4C25.865,50.156,24.794,50.054,22.906,49.649ZM54.893,32.037a3.969,3.969,0,0,0,1.684-2.48,5.33,5.33,0,0,0-3.214.709,6.538,6.538,0,0,0-1.02,1.265,19.132,19.132,0,0,0,.408-2.986,6.568,6.568,0,0,0,2.6-1.164A4.169,4.169,0,0,0,56.576,24.7a5,5,0,0,0-2.959,1.265,4.979,4.979,0,0,0-.765,1.468,22.205,22.205,0,0,0-.1-3.188,5.7,5.7,0,0,0,2.3-1.569,4.073,4.073,0,0,0,.714-2.784,4.8,4.8,0,0,0-2.653,1.721,4.74,4.74,0,0,0-.51,1.569,20.784,20.784,0,0,0-.714-3.188,6,6,0,0,0,1.99-1.923,3.845,3.845,0,0,0,.2-2.784,4.93,4.93,0,0,0-2.3,2.075,5.269,5.269,0,0,0-.2,1.822,22.1,22.1,0,0,0-1.326-3.188,5.57,5.57,0,0,0,1.632-2.227,3.72,3.72,0,0,0-.255-2.733,4.938,4.938,0,0,0-1.837,2.429,5,5,0,0,0,.153,1.923A21.1,21.1,0,0,0,48.006,12.3a5.251,5.251,0,0,0,1.173-2.429,3.693,3.693,0,0,0-.714-2.581A4.646,4.646,0,0,0,47.087,9.92a4.348,4.348,0,0,0,.459,1.771,24.294,24.294,0,0,0-2.4-2.632,5.37,5.37,0,0,0,.714-2.531A3.515,3.515,0,0,0,44.741,4.15a4.368,4.368,0,0,0-.867,2.784,4.706,4.706,0,0,0,.765,1.721c-.306-.253-.612-.506-.867-.709a16.094,16.094,0,0,0-1.99-1.417A5.231,5.231,0,0,0,42.088,3.9a3.69,3.69,0,0,0-1.53-2.126A4.193,4.193,0,0,0,40.3,4.454a5.081,5.081,0,0,0,1.224,1.67,31.763,31.763,0,0,0-3.316-1.771,5.371,5.371,0,0,0-.153-2.632A3.919,3.919,0,0,0,36.17,0a4.369,4.369,0,0,0,.153,2.784,5.958,5.958,0,0,0,1.53,1.468c-.663-.253-1.275-.506-1.786-.658a3.526,3.526,0,0,0-1.786-1.215,5.342,5.342,0,0,0-1.939.354,3.674,3.674,0,0,0,1.786,1.215,2.682,2.682,0,0,0,1.939-.253,21.159,21.159,0,0,1,2.245.911,5.325,5.325,0,0,0-2.194,0,4.462,4.462,0,0,0-2.041,1.923,3.433,3.433,0,0,0,2.551-.051,5.048,5.048,0,0,0,1.939-1.771,27.729,27.729,0,0,1,3.214,1.822,5.408,5.408,0,0,0-2.041-.354,4.541,4.541,0,0,0-2.4,1.569,3.644,3.644,0,0,0,2.6.4A5.818,5.818,0,0,0,42.19,6.782c.51.354,1.02.759,1.53,1.164A14.812,14.812,0,0,1,45.1,9.161a5.5,5.5,0,0,0-1.99-.709,4.53,4.53,0,0,0-2.7,1.164,3.579,3.579,0,0,0,2.5.86,4.651,4.651,0,0,0,2.5-1.012,21.225,21.225,0,0,1,2.347,2.784,4.892,4.892,0,0,0-1.735-.962,4.566,4.566,0,0,0-2.908.658,3.7,3.7,0,0,0,2.347,1.316,5.239,5.239,0,0,0,2.653-.557,29.729,29.729,0,0,1,1.786,3.037,5.356,5.356,0,0,0-1.479-1.164,5.057,5.057,0,0,0-3.061.152A3.9,3.9,0,0,0,47.5,16.5a5.549,5.549,0,0,0,2.7-.051c.459,1.063.867,2.126,1.224,3.239a4.274,4.274,0,0,0-1.275-1.417,4.933,4.933,0,0,0-3.112-.354,3.856,3.856,0,0,0,1.837,2.126,5.543,5.543,0,0,0,2.7.4,19.215,19.215,0,0,1,.612,3.492,5.219,5.219,0,0,0-1.071-1.67,5.142,5.142,0,0,0-3.061-.911,3.886,3.886,0,0,0,1.479,2.48,6.2,6.2,0,0,0,2.653.911,24.336,24.336,0,0,1-.051,3.34,4.39,4.39,0,0,0-.714-1.721A5.255,5.255,0,0,0,48.516,24.9a3.948,3.948,0,0,0,1.02,2.733A5.622,5.622,0,0,0,52.036,29a23.207,23.207,0,0,1-.561,3.188,5.581,5.581,0,0,0-.408-1.873,5.053,5.053,0,0,0-2.653-1.974,4.04,4.04,0,0,0,.561,2.935,5.821,5.821,0,0,0,2.245,1.771,24.138,24.138,0,0,1-1.071,2.885,5.333,5.333,0,0,0-.1-1.822,5.4,5.4,0,0,0-2.3-2.429,4.125,4.125,0,0,0,.051,3.037A6.556,6.556,0,0,0,49.689,36.9a21.558,21.558,0,0,1-1.53,2.581,5.266,5.266,0,0,0,.2-1.771,5.142,5.142,0,0,0-1.888-2.834,4.364,4.364,0,0,0-.51,3.087,6.409,6.409,0,0,0,1.53,2.531,18.278,18.278,0,0,1-1.99,2.379,5.011,5.011,0,0,0,.561-1.822,5.408,5.408,0,0,0-1.377-3.188,4.429,4.429,0,0,0-1.071,2.986,7.115,7.115,0,0,0,1.071,2.834,22.064,22.064,0,0,1-2.4,2.024,5.869,5.869,0,0,0,.918-1.771,5.367,5.367,0,0,0-.816-3.442,4.367,4.367,0,0,0-1.581,2.834,7.108,7.108,0,0,0,.561,2.986,6.023,6.023,0,0,1-.969.557c-.561.354-1.122.607-1.684.911a5.087,5.087,0,0,0,1.122-1.518,5.882,5.882,0,0,0-.2-3.644,4.594,4.594,0,0,0-2.092,2.531,6.567,6.567,0,0,0,.051,3.087,22.829,22.829,0,0,1-2.755.962,4.87,4.87,0,0,0,1.377-1.316,5.861,5.861,0,0,0,.459-3.695,5.383,5.383,0,0,0-2.449,2.379,6.535,6.535,0,0,0-.51,3.087,26.207,26.207,0,0,1-2.959.506l.051.4.051.4a22.362,22.362,0,0,0,3.724-.709,6.953,6.953,0,0,0,2.245,2.227,4.682,4.682,0,0,0,3.367.253A5.787,5.787,0,0,0,37.649,50a4.1,4.1,0,0,0-1.632-.253,24.838,24.838,0,0,0,2.6-1.012,6.044,6.044,0,0,0,2.6,1.771,4.6,4.6,0,0,0,3.316-.3,5.866,5.866,0,0,0-2.908-2.176A4.491,4.491,0,0,0,40,48.081c.306-.152.612-.354.969-.557.51-.253,1.02-.607,1.53-.911a6.294,6.294,0,0,0,2.755,1.265,4.668,4.668,0,0,0,3.163-.86A5.61,5.61,0,0,0,45.2,45.4a3.87,3.87,0,0,0-1.479.3,24.024,24.024,0,0,0,2.092-1.873,6.144,6.144,0,0,0,2.908.759,4.437,4.437,0,0,0,2.908-1.367,5.362,5.362,0,0,0-3.367-1.012,4.2,4.2,0,0,0-1.53.607,28.126,28.126,0,0,0,1.786-2.328,6.127,6.127,0,0,0,3.01.253,4.418,4.418,0,0,0,2.551-1.822,5.355,5.355,0,0,0-3.418-.4,4.363,4.363,0,0,0-1.479.962,27.511,27.511,0,0,0,1.479-2.682,5.873,5.873,0,0,0,2.959-.253,4.14,4.14,0,0,0,2.143-2.176,5.435,5.435,0,0,0-3.367.152,6.482,6.482,0,0,0-1.275,1.113,23.959,23.959,0,0,0,.969-2.885A5.19,5.19,0,0,0,54.893,32.037Z" fill="#596a75" opacity="0.47"/>
</svg>
